<svg width="344" height="344" viewBox="0 0 344 344" fill="none" xmlns="http://www.w3.org/2000/svg">
<rect x="49" y="6" width="246" height="332" rx="39" stroke="black" stroke-width="12"/>
<path d="M88.0511 85H75.1605V48.6364H88.1577C91.8153 48.6364 94.964 49.3643 97.6037 50.8203C100.243 52.2644 102.273 54.3419 103.694 57.0526C105.126 59.7633 105.842 63.0066 105.842 66.7827C105.842 70.5705 105.126 73.8258 103.694 76.5483C102.273 79.2708 100.232 81.3601 97.5682 82.8161C94.9167 84.272 91.7443 85 88.0511 85ZM82.8487 78.4126H87.7315C90.0043 78.4126 91.916 78.0102 93.4666 77.2053C95.0291 76.3885 96.201 75.1278 96.9822 73.4233C97.7753 71.7069 98.1719 69.4934 98.1719 66.7827C98.1719 64.0956 97.7753 61.8999 96.9822 60.1953C96.201 58.4908 95.035 57.236 93.4844 56.4311C91.9337 55.6262 90.022 55.2237 87.7493 55.2237H82.8487V78.4126ZM144.954 66.8182C144.954 70.7836 144.202 74.1572 142.699 76.9389C141.207 79.7206 139.171 81.8454 136.591 83.3132C134.022 84.7692 131.134 85.4972 127.926 85.4972C124.694 85.4972 121.794 84.7633 119.226 83.2955C116.657 81.8277 114.627 79.7029 113.135 76.9212C111.644 74.1394 110.898 70.7718 110.898 66.8182C110.898 62.8527 111.644 59.4792 113.135 56.6974C114.627 53.9157 116.657 51.7969 119.226 50.3409C121.794 48.8731 124.694 48.1392 127.926 48.1392C131.134 48.1392 134.022 48.8731 136.591 50.3409C139.171 51.7969 141.207 53.9157 142.699 56.6974C144.202 59.4792 144.954 62.8527 144.954 66.8182ZM137.159 66.8182C137.159 64.2495 136.774 62.0833 136.005 60.3196C135.247 58.5559 134.176 57.2183 132.791 56.3068C131.406 55.3954 129.784 54.9396 127.926 54.9396C126.068 54.9396 124.446 55.3954 123.061 56.3068C121.676 57.2183 120.599 58.5559 119.829 60.3196C119.072 62.0833 118.693 64.2495 118.693 66.8182C118.693 69.3868 119.072 71.553 119.829 73.3168C120.599 75.0805 121.676 76.4181 123.061 77.3295C124.446 78.241 126.068 78.6967 127.926 78.6967C129.784 78.6967 131.406 78.241 132.791 77.3295C134.176 76.4181 135.247 75.0805 136.005 73.3168C136.774 71.553 137.159 69.3868 137.159 66.8182ZM182.733 61.3672H174.956C174.814 60.361 174.524 59.4673 174.086 58.6861C173.648 57.893 173.086 57.2183 172.4 56.6619C171.713 56.1056 170.92 55.6794 170.02 55.3835C169.132 55.0876 168.168 54.9396 167.126 54.9396C165.244 54.9396 163.605 55.4072 162.208 56.3423C160.811 57.2656 159.728 58.6151 158.958 60.3906C158.189 62.1544 157.804 64.2969 157.804 66.8182C157.804 69.4105 158.189 71.5885 158.958 73.3523C159.74 75.116 160.829 76.4477 162.225 77.3473C163.622 78.2469 165.238 78.6967 167.073 78.6967C168.103 78.6967 169.056 78.5606 169.931 78.2884C170.819 78.0161 171.606 77.6196 172.293 77.0987C172.98 76.5661 173.548 75.9209 173.998 75.1634C174.459 74.4058 174.779 73.5417 174.956 72.571L182.733 72.6065C182.532 74.2756 182.029 75.8854 181.224 77.4361C180.431 78.9749 179.36 80.3539 178.01 81.5732C176.673 82.7805 175.075 83.7393 173.216 84.4496C171.37 85.148 169.28 85.4972 166.949 85.4972C163.705 85.4972 160.805 84.7633 158.248 83.2955C155.703 81.8277 153.691 79.7029 152.211 76.9212C150.743 74.1394 150.01 70.7718 150.01 66.8182C150.01 62.8527 150.755 59.4792 152.247 56.6974C153.738 53.9157 155.762 51.7969 158.319 50.3409C160.876 48.8731 163.752 48.1392 166.949 48.1392C169.056 48.1392 171.009 48.4351 172.808 49.027C174.619 49.6188 176.223 50.483 177.62 51.6193C179.016 52.7438 180.153 54.1229 181.029 55.7564C181.917 57.3899 182.485 59.2602 182.733 61.3672Z" fill="black"/>
<path d="M188.359 180.83L129.688 253.344H163.938L155.506 299.696C155.49 299.787 155.494 299.881 155.518 299.97C155.542 300.059 155.585 300.142 155.645 300.213C155.704 300.283 155.778 300.34 155.862 300.379C155.946 300.418 156.037 300.438 156.13 300.438C156.228 300.437 156.325 300.414 156.413 300.37C156.5 300.326 156.577 300.262 156.635 300.183L215.312 227.656H181.062L189.534 181.298C189.545 181.206 189.537 181.112 189.509 181.023C189.482 180.935 189.436 180.853 189.374 180.783C189.312 180.713 189.236 180.658 189.151 180.62C189.066 180.582 188.974 180.562 188.881 180.563C188.779 180.563 188.679 180.587 188.588 180.634C188.498 180.68 188.419 180.748 188.359 180.83Z" fill="#FBD926" stroke="black" stroke-width="9" stroke-linecap="round" stroke-linejoin="round"/>
<path d="M78.5 122H260.5" stroke="black" stroke-width="12"/>
<circle cx="261" cy="122" r="6" fill="black"/>
<circle cx="78" cy="122" r="6" fill="black"/>
<path d="M199.938 66H260.988" stroke="black" stroke-width="12"/>
<ellipse cx="261.45" cy="66" rx="5.55" ry="6" fill="black"/>
<ellipse cx="198.55" cy="66" rx="5.55" ry="6" fill="black"/>
</svg>
