<?xml version="1.0" standalone="no"?>
<!DOCTYPE svg PUBLIC "-//W3C//DTD SVG 20010904//EN"
 "http://www.w3.org/TR/2001/REC-SVG-20010904/DTD/svg10.dtd">
<svg version="1.0" xmlns="http://www.w3.org/2000/svg"
 width="700.000000pt" height="700.000000pt" viewBox="0 0 700.000000 700.000000"
 preserveAspectRatio="xMidYMid meet">
<metadata>
Created by potrace 1.14, written by Peter Selinger 2001-2017
</metadata>
<g transform="translate(0.000000,700.000000) scale(0.100000,-0.100000)"
fill="#000000" stroke="none">
<path d="M1665 6993 c-173 -36 -278 -77 -387 -152 -126 -86 -221 -189 -287
-312 -54 -100 -80 -174 -107 -309 -9 -46 -12 -5364 -3 -5410 4 -19 10 -51 12
-70 8 -57 47 -170 82 -240 123 -242 347 -413 626 -479 82 -20 119 -20 1919
-18 1009 1 1846 6 1860 10 13 3 58 17 100 29 272 79 510 312 595 582 53 165
51 49 49 2906 -1 1466 -4 2676 -8 2690 -3 14 -8 39 -12 55 -21 111 -85 254
-156 350 -139 187 -319 302 -553 356 -76 17 -175 18 -1895 17 -998 0 -1824 -2
-1835 -5z"/>
</g>
</svg>
